<mxfile host="app.diagrams.net" modified="2024-05-21T15:24:37.183Z" agent="Mozilla/5.0 (Windows NT 10.0; Win64; x64) AppleWebKit/537.36 (KHTML, like Gecko) Chrome/124.0.0.0 Safari/537.36" etag="JZ9ViyzDslVfD3GcSlfh" version="24.4.4" type="google">
  <diagram name="Page-1" id="-KS6p9xdAO3I-7Zlrojr">
    <mxGraphModel grid="1" page="1" gridSize="10" guides="1" tooltips="1" connect="1" arrows="1" fold="1" pageScale="1" pageWidth="827" pageHeight="1169" math="0" shadow="0">
      <root>
        <mxCell id="0" />
        <mxCell id="1" parent="0" />
        <mxCell id="R_3YffJcxiP3TydWUHx2-1" value="&lt;h1&gt;X Y&lt;/h1&gt;" style="rounded=0;whiteSpace=wrap;html=1;" vertex="1" parent="1">
          <mxGeometry x="310" y="140" width="240" height="60" as="geometry" />
        </mxCell>
        <mxCell id="R_3YffJcxiP3TydWUHx2-4" value="" style="endArrow=classic;html=1;rounded=0;" edge="1" parent="1">
          <mxGeometry width="50" height="50" relative="1" as="geometry">
            <mxPoint x="429.5" y="200" as="sourcePoint" />
            <mxPoint x="430" y="250" as="targetPoint" />
          </mxGeometry>
        </mxCell>
        <mxCell id="R_3YffJcxiP3TydWUHx2-7" value="&lt;h1&gt;X&amp;gt;Y&lt;/h1&gt;" style="rhombus;whiteSpace=wrap;html=1;" vertex="1" parent="1">
          <mxGeometry x="325" y="250" width="210" height="210" as="geometry" />
        </mxCell>
        <mxCell id="R_3YffJcxiP3TydWUHx2-11" value="&lt;h3&gt;YES&lt;/h3&gt;" style="text;html=1;align=center;verticalAlign=middle;resizable=0;points=[];autosize=1;strokeColor=none;fillColor=none;" vertex="1" parent="1">
          <mxGeometry x="215" y="310" width="50" height="60" as="geometry" />
        </mxCell>
        <mxCell id="R_3YffJcxiP3TydWUHx2-14" value="&lt;h3&gt;NO&lt;/h3&gt;" style="text;html=1;align=center;verticalAlign=middle;resizable=0;points=[];autosize=1;strokeColor=none;fillColor=none;" vertex="1" parent="1">
          <mxGeometry x="590" y="310" width="40" height="60" as="geometry" />
        </mxCell>
        <mxCell id="R_3YffJcxiP3TydWUHx2-15" value="&lt;h2&gt;Print X&lt;/h2&gt;" style="rounded=0;whiteSpace=wrap;html=1;" vertex="1" parent="1">
          <mxGeometry x="115" y="540" width="145" height="80" as="geometry" />
        </mxCell>
        <mxCell id="R_3YffJcxiP3TydWUHx2-16" value="&lt;h2&gt;Print Y&lt;/h2&gt;" style="rounded=0;whiteSpace=wrap;html=1;" vertex="1" parent="1">
          <mxGeometry x="590" y="545" width="150" height="80" as="geometry" />
        </mxCell>
        <mxCell id="R_3YffJcxiP3TydWUHx2-20" value="" style="endArrow=classic;html=1;rounded=0;" edge="1" parent="1">
          <mxGeometry width="50" height="50" relative="1" as="geometry">
            <mxPoint x="530" y="350" as="sourcePoint" />
            <mxPoint x="670" y="540" as="targetPoint" />
            <Array as="points">
              <mxPoint x="670" y="350" />
            </Array>
          </mxGeometry>
        </mxCell>
        <mxCell id="R_3YffJcxiP3TydWUHx2-21" value="" style="endArrow=classic;html=1;rounded=0;" edge="1" parent="1">
          <mxGeometry width="50" height="50" relative="1" as="geometry">
            <mxPoint x="330" y="350" as="sourcePoint" />
            <mxPoint x="180" y="530" as="targetPoint" />
            <Array as="points">
              <mxPoint x="180" y="350" />
            </Array>
          </mxGeometry>
        </mxCell>
        <mxCell id="R_3YffJcxiP3TydWUHx2-22" value="" style="endArrow=classic;html=1;rounded=0;exitX=0.5;exitY=1;exitDx=0;exitDy=0;" edge="1" parent="1" source="R_3YffJcxiP3TydWUHx2-16">
          <mxGeometry width="50" height="50" relative="1" as="geometry">
            <mxPoint x="460" y="910" as="sourcePoint" />
            <mxPoint x="490" y="810" as="targetPoint" />
            <Array as="points">
              <mxPoint x="670" y="810" />
            </Array>
          </mxGeometry>
        </mxCell>
        <mxCell id="R_3YffJcxiP3TydWUHx2-23" value="" style="endArrow=classic;html=1;rounded=0;exitX=0.448;exitY=1;exitDx=0;exitDy=0;exitPerimeter=0;" edge="1" parent="1" source="R_3YffJcxiP3TydWUHx2-15">
          <mxGeometry width="50" height="50" relative="1" as="geometry">
            <mxPoint x="160" y="710" as="sourcePoint" />
            <mxPoint x="330" y="810" as="targetPoint" />
            <Array as="points">
              <mxPoint x="180" y="810" />
            </Array>
          </mxGeometry>
        </mxCell>
        <mxCell id="R_3YffJcxiP3TydWUHx2-24" value="&lt;h2&gt;END&lt;/h2&gt;" style="rounded=0;whiteSpace=wrap;html=1;" vertex="1" parent="1">
          <mxGeometry x="330" y="770" width="160" height="80" as="geometry" />
        </mxCell>
      </root>
    </mxGraphModel>
  </diagram>
</mxfile>
